<svg width="67" height="75" viewBox="0 0 67 75" fill="none" xmlns="http://www.w3.org/2000/svg">
<path d="M6.01875 67.5031L0 0H66.1312L60.1062 67.4937L33.025 75L6.01875 67.5031Z" fill="#E44D26"/>
<path d="M33.0657 69.2625L54.9469 63.1938L60.0969 5.5188H33.0657V69.2625Z" fill="#F16529"/>
<path d="M33.0655 30.5564H22.1124L21.353 22.0782H33.0655V13.797H12.3062L12.503 16.0189L14.5374 38.8314H33.0655V30.5564ZM33.0655 52.0564L33.028 52.0657L23.8093 49.5751L23.2187 42.972H14.9093L16.0687 55.972L33.028 60.6814L33.0655 60.6689V52.0564Z" fill="#EBEBEB"/>
<path d="M33.0376 30.5564V38.8345H43.2345L42.272 49.572L33.0376 52.0626V60.6751L50.0095 55.972L50.1345 54.572L52.0813 32.7782L52.2813 30.5532H50.0501L33.0376 30.5564ZM33.0376 13.797V22.0782H53.0345L53.2001 20.2157L53.5782 16.0189L53.7751 13.797H33.0376Z" fill="white"/>
<path d="M33.0655 74.9873L33.0249 74.9998H33.0655V74.9873Z" fill="#DEDEDE"/>
<path d="M33.0656 22.0781H21.3531L22.1094 30.5562H33.0344H33.0656V22.0781ZM33.0656 0H0L6.01875 67.5031L33.025 75L33.0656 74.9875V60.6687L33.0281 60.6812L16.0688 55.9719L14.9094 42.9719H23.2188L23.8094 49.575L33.0281 52.0656L33.0375 52.0625L33.0656 52.0563V38.8344H14.5375L12.5031 16.0219L12.3063 13.7969H33.0375H33.0656V0Z" fill="#C64321"/>
<path d="M23.2187 42.972H14.9093L16.0687 55.972L33.028 60.6814L33.0655 60.6689L33.0374 60.6751V52.0626L33.028 52.0657L23.8093 49.5751L23.2187 42.972ZM33.0374 13.797H12.3062L12.503 16.0189L14.5374 38.8314H33.0655H33.0374V30.5564H22.1124L21.353 22.0782H33.0655H33.0374V13.797Z" fill="#CDCDCD"/>
<path d="M33.0657 52.0564L33.0376 52.0626V60.6751L33.0657 60.6689V52.0564ZM33.0657 30.5564H33.0376V38.8345H33.0657V30.5564ZM33.0657 13.797H33.0376V22.0782H33.0657V13.797Z" fill="#DEDEDE"/>
</svg>
